<?xml version="1.0" standalone="no"?>
<!DOCTYPE svg PUBLIC "-//W3C//DTD SVG 20010904//EN"
 "http://www.w3.org/TR/2001/REC-SVG-20010904/DTD/svg10.dtd">
<svg version="1.0" xmlns="http://www.w3.org/2000/svg"
 width="256.000000pt" height="256.000000pt" viewBox="0 0 256.000000 256.000000"
 preserveAspectRatio="xMidYMid meet">
<metadata>
Created by potrace 1.16, written by Peter Selinger 2001-2019
</metadata>
<g transform="translate(0.000000,256.000000) scale(0.100000,-0.100000)"
fill="#000000" stroke="none">
<path d="M1045 2543 c-160 -29 -339 -102 -486 -198 -95 -63 -281 -249 -344
-344 -147 -224 -215 -451 -215 -721 0 -270 68 -497 215 -721 63 -95 249 -281
344 -344 224 -147 451 -215 721 -215 270 0 497 68 721 215 95 63 281 249 344
344 147 224 215 451 215 721 0 270 -68 497 -215 721 -63 95 -249 281 -344 344
-151 99 -327 170 -496 199 -112 20 -350 19 -460 -1z m495 -173 c410 -102 728
-422 832 -836 32 -129 32 -379 0 -508 -105 -417 -421 -733 -838 -838 -129 -32
-379 -32 -508 0 -417 105 -733 421 -838 838 -32 129 -32 379 0 508 114 455
479 786 947 860 75 11 321 -3 405 -24z"/>
<path d="M718 1710 c-54 -9 -137 -52 -169 -87 -30 -31 -31 -86 -1 -115 31 -31
79 -29 126 7 56 43 136 47 190 10 57 -39 82 -46 113 -34 35 13 52 37 53 76 0
25 -9 39 -46 72 -68 60 -171 87 -266 71z"/>
<path d="M1740 1713 c-109 -18 -210 -89 -210 -147 1 -38 18 -62 53 -75 31 -12
56 -5 113 34 54 37 134 33 190 -10 47 -36 95 -38 126 -7 30 30 29 84 -2 117
-53 56 -191 101 -270 88z"/>
<path d="M553 1206 c-27 -23 -28 -28 -26 -98 8 -240 144 -470 357 -606 100
-63 272 -112 396 -112 124 0 296 49 396 112 213 136 349 366 357 606 2 70 1
75 -26 98 l-28 24 -699 0 -699 0 -28 -24z m1311 -168 c-21 -112 -99 -244 -194
-331 -113 -102 -237 -150 -390 -150 -153 0 -277 48 -390 150 -95 87 -173 219
-194 331 l-5 32 589 0 590 0 -6 -32z"/>
</g>
</svg>
