<?xml version="1.0" standalone="no"?>
<!DOCTYPE svg PUBLIC "-//W3C//DTD SVG 20010904//EN"
 "http://www.w3.org/TR/2001/REC-SVG-20010904/DTD/svg10.dtd">
<svg version="1.0" xmlns="http://www.w3.org/2000/svg"
 width="256.000000pt" height="256.000000pt" viewBox="0 0 256.000000 256.000000"
 preserveAspectRatio="xMidYMid meet">
<metadata>
Created by potrace 1.16, written by Peter Selinger 2001-2019
</metadata>
<g transform="translate(0.000000,256.000000) scale(0.100000,-0.100000)"
fill="#000000" stroke="none">
<path d="M1600 2249 c-167 -60 -307 -113 -310 -119 -3 -6 -77 -256 -164 -556
-112 -387 -155 -549 -148 -556 8 -8 55 -2 164 20 84 16 154 29 156 27 1 -1
-52 -188 -118 -414 -66 -226 -120 -423 -120 -437 0 -20 4 -25 22 -22 17 2 53
56 154 228 73 124 135 229 136 234 2 5 28 -16 58 -46 63 -62 132 -99 245 -129
108 -29 356 -32 455 -6 247 67 370 219 370 457 0 242 -125 380 -410 450 -153
38 -199 45 -212 32 -21 -21 4 -32 118 -57 196 -43 281 -80 359 -159 71 -71 98
-141 99 -261 1 -206 -96 -339 -299 -407 -62 -20 -89 -23 -240 -23 -150 0 -179
3 -245 23 -103 33 -164 68 -215 124 -51 56 -83 120 -101 195 -12 52 -12 54 9
63 32 12 269 32 278 23 3 -5 12 -25 19 -47 17 -52 77 -110 135 -130 55 -18
161 -21 217 -6 44 13 93 52 113 91 20 38 19 106 -3 149 -23 46 -74 73 -198
104 -125 31 -157 33 -152 9 2 -14 33 -26 128 -51 69 -18 136 -41 150 -51 14
-10 31 -36 39 -57 12 -35 12 -44 -3 -75 -62 -131 -350 -102 -382 39 -13 57
-31 72 -84 72 -28 0 -50 3 -50 6 0 3 63 113 140 244 77 132 140 246 140 254 0
8 -4 17 -9 21 -6 3 -78 -6 -162 -20 -83 -14 -155 -25 -159 -23 -4 2 86 194
201 427 115 233 209 432 209 442 0 9 -6 19 -13 22 -7 3 -150 -44 -317 -104z"/>
<path d="M76 1967 c-14 -10 -17 -22 -13 -43 3 -16 96 -283 207 -594 110 -311
217 -612 236 -670 20 -58 43 -113 51 -122 14 -16 39 -18 228 -18 194 0 213 2
229 19 14 15 156 410 156 433 0 16 -39 8 -48 -9 -5 -10 -38 -101 -72 -203 -34
-102 -67 -188 -74 -192 -6 -4 -93 -8 -192 -8 -140 0 -184 3 -193 13 -6 8 -35
86 -65 173 -30 87 -134 382 -231 654 -97 272 -179 503 -182 513 -5 16 7 17
165 17 l169 0 12 -61 c7 -33 77 -275 156 -537 78 -263 145 -486 147 -497 2
-12 11 -20 23 -20 15 0 23 12 33 50 8 28 76 257 152 510 76 253 141 481 145
507 6 41 10 47 33 50 35 4 42 35 10 43 -33 8 -78 -11 -78 -33 0 -10 -11 -58
-23 -108 -28 -105 -269 -905 -272 -902 -8 9 -268 890 -281 950 -9 40 -23 79
-32 86 -23 18 -371 17 -396 -1z"/>
<path d="M1884 1966 c-10 -26 6 -36 59 -36 140 -1 304 -65 381 -151 44 -48 87
-127 99 -180 l6 -25 -132 -13 c-73 -7 -142 -15 -154 -18 -18 -4 -25 2 -38 33
-34 81 -95 115 -208 116 -110 0 -197 -45 -197 -103 0 -27 29 -24 51 5 30 39
99 60 171 53 74 -7 104 -27 139 -93 20 -38 31 -50 53 -52 31 -4 319 26 343 35
24 9 12 88 -25 167 -75 160 -228 249 -470 271 -59 5 -73 4 -78 -9z"/>
</g>
</svg>
